<svg xmlns="http://www.w3.org/2000/svg" viewBox="0 0 212 212" fill="none">
  <rect width="212" height="212" fill="white"/>
  <path fill-rule="evenodd" clip-rule="evenodd" d="M146.28 64.3066H74.9062V100.7H111.3V137.093L147.693 137.093V65.72C147.693 64.9394 147.06 64.3066 146.28 64.3066Z" fill="#4945FF"/>
  <rect x="109.886" y="100.7" width="1.41333" height="1.41333" fill="#4945FF"/>
  <path d="M74.9062 100.7H109.886C110.667 100.7 111.3 101.333 111.3 102.113V137.093H76.3196C75.539 137.093 74.9062 136.461 74.9062 135.68V100.7Z" fill="#9593FF"/>
  <path d="M111.3 137.093H147.693L112.506 172.28C112.061 172.725 111.3 172.41 111.3 171.781V137.093Z" fill="#9593FF"/>
  <path d="M74.9061 100.7H40.2188C39.5893 100.7 39.274 99.9388 39.7191 99.4936L74.9061 64.3066V100.7Z" fill="#9593FF"/>
</svg>
